<svg width="23" height="15" viewBox="0 0 23 15" fill="none" xmlns="http://www.w3.org/2000/svg">
<path d="M15.6665 6.45831C17.3957 6.45831 18.7811 5.06248 18.7811 3.33331C18.7811 1.60415 17.3957 0.208313 15.6665 0.208313C13.9373 0.208313 12.5415 1.60415 12.5415 3.33331C12.5415 5.06248 13.9373 6.45831 15.6665 6.45831ZM7.33317 6.45831C9.06234 6.45831 10.4478 5.06248 10.4478 3.33331C10.4478 1.60415 9.06234 0.208313 7.33317 0.208313C5.604 0.208313 4.20817 1.60415 4.20817 3.33331C4.20817 5.06248 5.604 6.45831 7.33317 6.45831ZM7.33317 8.54165C4.90609 8.54165 0.0415039 9.7604 0.0415039 12.1875V13.75C0.0415039 14.3229 0.510254 14.7916 1.08317 14.7916H13.5832C14.1561 14.7916 14.6248 14.3229 14.6248 13.75V12.1875C14.6248 9.7604 9.76025 8.54165 7.33317 8.54165ZM15.6665 8.54165C15.3644 8.54165 15.0207 8.56248 14.6561 8.59373C14.6769 8.60415 14.6873 8.62498 14.6978 8.6354C15.8853 9.49998 16.7082 10.6562 16.7082 12.1875V13.75C16.7082 14.1146 16.6353 14.4687 16.5207 14.7916H21.9165C22.4894 14.7916 22.9582 14.3229 22.9582 13.75V12.1875C22.9582 9.7604 18.0936 8.54165 15.6665 8.54165Z" fill="#76808C"/>
</svg>
