<svg width="17" height="21" viewBox="0 0 17 21" fill="none" xmlns="http://www.w3.org/2000/svg">
<path d="M8.50024 20.9167C9.64607 20.9167 10.5836 19.9792 10.5836 18.8334H6.4169C6.4169 19.9792 7.34399 20.9167 8.50024 20.9167ZM14.7502 14.6667V9.45835C14.7502 6.26044 13.0419 3.58335 10.0627 2.87502V2.16669C10.0627 1.3021 9.36482 0.604187 8.50024 0.604187C7.63565 0.604187 6.93774 1.3021 6.93774 2.16669V2.87502C3.94815 3.58335 2.25024 6.25002 2.25024 9.45835V14.6667L0.906487 16.0104C0.250237 16.6667 0.70857 17.7917 1.63565 17.7917H15.3544C16.2815 17.7917 16.7502 16.6667 16.094 16.0104L14.7502 14.6667Z" fill="#76808C"/>
</svg>
